<svg xmlns="http://www.w3.org/2000/svg" viewBox="0 0 464.18799 164.06299"><title>logo</title><path d="M464.18793,0a47.85147,47.85147,0,0,0-47.8515,47.8515V82.03174q0,41.01563-34.17969,41.01562-34.18067,0-34.17969-41.01562v-58.106a23.92578,23.92578,0,0,0-47.85156,0v58.106q0,41.01563-34.17969,41.01562-34.1814,0-34.18017-41.01562V47.8515A47.85148,47.85148,0,0,0,183.91412,0h-.00006V26.92523q17.47165,20.074,17.49219,55.10651,0,25.73-9.41882,43.38666,17.65952,38.64176,73.95837,38.64459,37.73438,0,58.10547-17.36328Q344.42139,164.064,382.15674,164.063q82.03125,0,82.03125-82.03125V0Z"/><path d="M173.91406,26.92523Q150.4946.01752,95.70313,0H0V164.063H95.70313q65.68542,0,86.2843-38.64459,9.41546-17.65951,9.41882-43.38666Q191.40625,46.98169,173.91406,26.92523ZM95.70313,123.04736H47.85156V41.01611H95.70313q47.85351,0,47.85156,41.01563Q143.55469,123.04737,95.70313,123.04736Z"/></svg>